<svg width="100%" height="100%" viewBox="0 0 1111 275" version="1.1" xmlns="http://www.w3.org/2000/svg" xmlns:xlink="http://www.w3.org/1999/xlink" xml:space="preserve" xmlns:serif="http://www.serif.com/" style="fill-rule:evenodd;clip-rule:evenodd;stroke-linejoin:round;stroke-miterlimit:2;">
    <g id="Artboard1" transform="matrix(0.925714,0,0,0.609381,0,0)">
        <rect x="0" y="0" width="1200" height="450" style="fill:none;"/>
        <g id="Layer-1" serif:id="Layer 1" transform="matrix(4.50103,0,0,6.83755,-51.7838,-138.436)">
            <g transform="matrix(0.847982,0.530025,0.530025,-0.847982,62.4651,62.1495)">
                <path d="M1.816,-0.523C-0.073,-0.519 -1.608,1.013 -1.609,2.906C-1.604,4.8 -0.073,6.331 1.816,6.334C3.713,6.331 5.243,4.8 5.248,2.908C5.244,1.017 3.708,-0.524 1.816,-0.523" style="fill:rgb(84,185,71);fill-rule:nonzero;"/>
            </g>
            <g transform="matrix(1,0,0,1,66.8677,79.6484)">
                <path d="M0,-41.373C0,-41.373 -1.382,-16.534 -25.015,0C-23.812,-0.992 -7.908,-17.593 -10.909,-20.462C-12.812,-22.929 -19.011,-26.445 -24.63,-28.2C-24.63,-28.2 -15.06,-29.013 -8.239,-26.222C-7.141,-27.263 -1.411,-35.164 0,-41.373" style="fill:rgb(84,185,71);fill-rule:nonzero;"/>
            </g>
            <g transform="matrix(-0.86336,0.504588,0.504588,0.86336,25.4582,69.805)">
                <path d="M1.725,-6.383C-0.169,-6.384 -1.7,-4.846 -1.701,-2.956C-1.699,-1.063 -0.163,0.47 1.725,0.468C3.62,0.469 5.152,-1.065 5.152,-2.957C5.155,-4.849 3.615,-6.381 1.725,-6.383" style="fill:rgb(113,203,210);fill-rule:nonzero;"/>
            </g>
            <g transform="matrix(1,0,0,1,41.853,37.4564)">
                <path d="M0,42.192C0,42.192 -23.349,29.792 -23.853,0C-23.534,1.523 -17.561,24.186 -13.624,22.857C-10.55,22.319 -4.563,18.464 -0.393,14.305C-0.393,14.305 -4.125,23.155 -9.765,27.899C-9.354,29.355 -4.85,38.057 0,42.192" style="fill:rgb(113,203,210);fill-rule:nonzero;"/>
            </g>
            <g transform="matrix(0.0848091,-0.996397,-0.996397,-0.0848091,39.6371,23.8104)">
                <path d="M-3.413,-3.137C-5.306,-3.139 -6.84,-1.602 -6.836,0.291C-6.841,2.178 -5.304,3.715 -3.413,3.713C-1.517,3.715 0.011,2.182 0.011,0.29C0.015,-1.601 -1.521,-3.136 -3.413,-3.137" style="fill:rgb(0,85,165);fill-rule:nonzero;"/>
            </g>
            <g transform="matrix(1,0,0,1,18,38.4921)">
                <path d="M0,-1.036C0,-1.036 23.367,-13.706 48.868,-0.217C47.433,-0.84 25.315,-7.053 24.13,-3.067C22.805,-0.248 22.502,6.873 23.505,12.67C23.505,12.67 18.418,4.528 17.789,-2.818C16.363,-3.319 6.169,-2.614 0,-1.036" style="fill:rgb(0,85,165);fill-rule:nonzero;"/>
            </g>
            <g transform="matrix(1,0,0,1,84.5244,43.7743)">
                <path d="M0,9.524C-0.416,11.438 0.467,13.043 2.799,13.043C3.834,13.043 5.749,12.63 7.146,10.559C8.285,8.904 8.749,6.782 8.905,5.695C4.765,5.745 0.777,5.795 0,9.524M6.63,17.96C6.63,17.036 6.784,15.894 7.093,14.235C5.541,15.998 3.005,18.479 -2.33,18.479C-8.696,18.479 -10.765,15.012 -9.782,10.402C-8.281,3.31 -1.136,0.724 9.942,1.189C10.563,-1.605 10.773,-4.194 7.82,-4.194C6.005,-4.194 4.091,-3.207 3.521,-0.257L-5.794,-0.257C-5.487,-1.449 -5.019,-3.676 -2.637,-5.693C-0.15,-7.764 4.144,-8.955 8.854,-8.955C11.183,-8.955 16.051,-8.643 18.226,-5.95C19.57,-4.351 19.673,-1.914 19.051,0.88L16.465,12.993C16.103,14.858 16.051,15.377 15.948,17.96L6.63,17.96Z" style="fill:rgb(0,85,165);fill-rule:nonzero;"/>
            </g>
            <g transform="matrix(1,0,0,1,108.448,55.1609)">
                <path d="M0,-13.512C0.156,-14.13 0.93,-18.634 1.09,-19.41L10.716,-19.41L9.886,-15.114C12.474,-18.48 15.792,-20.03 19.721,-20.03C21.226,-20.03 26.143,-19.774 26.868,-15.217C30.182,-19.257 34.374,-20.085 37.065,-20.085C41.932,-20.085 43.744,-17.548 44.418,-16.044C45.35,-13.819 44.675,-10.663 44.004,-7.66L41,6.573L31.267,6.573L34.374,-8.124C34.947,-10.766 35.616,-13.874 31.729,-13.874C30.439,-13.874 28.888,-13.405 27.646,-11.696C27.179,-11.076 26.818,-10.245 26.354,-8.021L23.243,6.573L13.514,6.573L16.67,-8.229C17.133,-10.562 17.861,-13.874 13.978,-13.874C10.666,-13.874 9.268,-11.129 8.646,-8.229L5.488,6.573L-4.245,6.573L0,-13.512Z" style="fill:rgb(0,85,165);fill-rule:nonzero;"/>
            </g>
            <g transform="matrix(1,0,0,1,168.65,58.3996)">
                <path d="M0,-1.945C4.09,-1.945 5.847,-6.397 6.677,-10.276C7.194,-12.758 7.763,-17.729 3.621,-17.729C-1.352,-17.729 -2.743,-11.26 -3.057,-9.763C-3.522,-7.686 -4.454,-1.945 0,-1.945M-0.519,-22.649L-1.194,-18.976C0,-20.265 2.795,-23.324 8.228,-23.324C12.58,-23.324 18.894,-20.841 16.617,-10.171C14.491,-0.078 7.973,3.854 2.068,3.854C-2.533,3.854 -4.145,1.529 -4.969,0.233L-8.89,21.379L-17.448,21.379L-10.768,-18.405C-10.253,-21.251 -10.253,-21.563 -10.044,-22.649L-0.519,-22.649Z" style="fill:rgb(0,85,165);fill-rule:nonzero;"/>
            </g>
            <g transform="matrix(1,0,0,1,195.84,43.7743)">
                <path d="M0,9.524C-0.414,11.438 0.465,13.043 2.792,13.043C3.83,13.043 5.741,12.63 7.144,10.559C8.282,8.904 8.749,6.782 8.905,5.695C4.764,5.745 0.776,5.795 0,9.524M6.625,17.96C6.625,17.036 6.783,15.894 7.09,14.235C5.539,15.998 2.998,18.479 -2.33,18.479C-8.696,18.479 -10.771,15.012 -9.78,10.402C-8.285,3.31 -1.138,0.724 9.938,1.189C10.562,-1.605 10.765,-4.194 7.815,-4.194C6,-4.194 4.09,-3.207 3.521,-0.257L-5.802,-0.257C-5.486,-1.449 -5.023,-3.676 -2.641,-5.693C-0.157,-7.764 4.141,-8.955 8.851,-8.955C11.182,-8.955 16.05,-8.643 18.223,-5.95C19.564,-4.351 19.671,-1.914 19.046,0.88L16.461,12.993C16.103,14.858 16.05,15.377 15.946,17.96L6.625,17.96Z" style="fill:rgb(0,85,165);fill-rule:nonzero;"/>
            </g>
            <g transform="matrix(1,0,0,1,239.716,54.385)">
                <path d="M0,-18.532L-1.296,-12.321L-7.556,-12.321L-9.474,-3.31C-10.099,-0.103 -10.405,1.349 -6.679,1.349C-5.903,1.349 -5.435,1.349 -4.249,1.19L-5.542,7.298C-6.889,7.51 -8.647,7.764 -11.959,7.764C-19.725,7.764 -20.709,5.174 -19.619,0.154L-16.979,-12.321L-21.902,-12.321L-20.603,-18.532L-15.533,-18.532L-14.649,-22.568L-4.504,-26.296L-6.158,-18.532L0,-18.532Z" style="fill:rgb(0,85,165);fill-rule:nonzero;"/>
            </g>
            <g transform="matrix(1,0,0,1,246.185,61.7349)">
                <path d="M0,-37.375L9.836,-37.375L6.833,-23.141C8.079,-24.176 10.977,-26.552 15.686,-26.552C18.224,-26.552 20.654,-25.882 22.365,-23.911C24.486,-21.584 23.866,-18.735 23.09,-15.117L19.883,0L10.205,0L13.152,-13.975C13.613,-16.149 14.547,-20.393 10.506,-20.393C7.404,-20.393 6.111,-17.802 5.648,-16.771C5.122,-15.581 4.763,-13.921 4.304,-11.75L1.81,0L-7.918,0L0,-37.375Z" style="fill:rgb(0,85,165);fill-rule:nonzero;"/>
            </g>
            <g transform="matrix(0.24,0,0,0.24,1.95843,0.762644)">
                <g>
                    <g transform="matrix(1,0,0,1,701.98,310.886)">
                        <text x="0px" y="0px" style="font-family:'NeueHaasDisplay-RomanItalic', 'Neue Haas Grotesk Display Pro', sans-serif;font-weight:500;font-style:italic;font-size:54.167px;">L</text>
                    </g>
                    <g transform="matrix(1,0,0,1,729.551,310.886)">
                        <text x="0px" y="0px" style="font-family:'NeueHaasDisplay-RomanItalic', 'Neue Haas Grotesk Display Pro', sans-serif;font-weight:500;font-style:italic;font-size:54.167px;">ea<tspan x="54.546px " y="0px ">d</tspan>ing With C</text>
                    </g>
                    <g transform="matrix(1,0,0,1,1037.33,310.886)">
                        <text x="0px" y="0px" style="font-family:'NeueHaasDisplay-RomanItalic', 'Neue Haas Grotesk Display Pro', sans-serif;font-weight:500;font-style:italic;font-size:54.167px;">ar<tspan x="44.146px " y="0px ">e</tspan></text>
                    </g>
                </g>
            </g>
        </g>
    </g>
</svg>
