<svg viewBox="0 0 1050 234" xmlns="http://www.w3.org/2000/svg" xml:space="preserve" style="fill-rule:evenodd;clip-rule:evenodd;stroke-linejoin:round;stroke-miterlimit:2"><path d="M1.816-.523a3.432 3.432 0 0 0-3.425 3.429 3.433 3.433 0 0 0 3.425 3.428 3.433 3.433 0 0 0 3.432-3.426A3.438 3.438 0 0 0 1.816-.523" style="fill:#54b947;fill-rule:nonzero" transform="scale(4.16667 -4.16667) rotate(-32.007 -44.688 -96.71)"/><path d="M0-41.373S-1.382-16.534-25.015 0c1.203-.992 17.107-17.593 14.106-20.462-1.903-2.467-8.102-5.983-13.721-7.738 0 0 9.57-.813 16.391 1.978C-7.141-27.263-1.411-35.164 0-41.373" style="fill:#54b947;fill-rule:nonzero" transform="translate(203.616 232.86) scale(4.16667)"/><path d="M1.725-6.383a3.426 3.426 0 1 0 0 6.85 3.426 3.426 0 0 0 0-6.85" style="fill:#71cbd2;fill-rule:nonzero" transform="scale(-4.16667 4.16667) rotate(30.304 -88.744 9.25)"/><path d="M0 42.192S-23.349 29.792-23.853 0c.319 1.523 6.292 24.186 10.229 22.857 3.074-.538 9.061-4.393 13.231-8.552 0 0-3.732 8.85-9.372 13.594C-9.354 29.355-4.85 38.057 0 42.192" style="fill:#71cbd2;fill-rule:nonzero" transform="translate(99.388 57.06) scale(4.16667)"/><path d="M-3.413-3.137A3.42 3.42 0 0 0-6.836.291a3.42 3.42 0 0 0 3.423 3.422A3.418 3.418 0 0 0 .011.29a3.424 3.424 0 0 0-3.424-3.427" style="fill:#0055a5;fill-rule:nonzero" transform="scale(4.16667 -4.16667) rotate(85.135 10.845 11.754)"/><path d="M0-1.036s23.367-12.67 48.868.819C47.433-.84 25.315-7.053 24.13-3.067c-1.325 2.819-1.628 9.94-.625 15.737 0 0-5.087-8.142-5.716-15.488C16.363-3.319 6.169-2.614 0-1.036" style="fill:#0055a5;fill-rule:nonzero" transform="translate(0 61.376) scale(4.16667)"/><path d="M0 9.524c-.416 1.914.467 3.519 2.799 3.519 1.035 0 2.95-.413 4.347-2.484 1.139-1.655 1.603-3.777 1.759-4.864-4.14.05-8.128.1-8.905 3.829m6.63 8.436c0-.924.154-2.066.463-3.725-1.552 1.763-4.088 4.244-9.423 4.244-6.366 0-8.435-3.467-7.452-8.077C-8.281 3.31-1.136.724 9.942 1.189c.621-2.794.831-5.383-2.122-5.383-1.815 0-3.729.987-4.299 3.937h-9.315c.307-1.192.775-3.419 3.157-5.436C-.15-7.764 4.144-8.955 8.854-8.955c2.329 0 7.197.312 9.372 3.005 1.344 1.599 1.447 4.036.825 6.83l-2.586 12.113c-.362 1.865-.414 2.384-.517 4.967H6.63Z" style="fill:#0055a5;fill-rule:nonzero" transform="translate(277.185 83.385) scale(4.16667)"/><path d="M0-13.512c.156-.618.93-5.122 1.09-5.898h9.626l-.83 4.296c2.588-3.366 5.906-4.916 9.835-4.916 1.505 0 6.422.256 7.147 4.813 3.314-4.04 7.506-4.868 10.197-4.868 4.867 0 6.679 2.537 7.353 4.041.932 2.225.257 5.381-.414 8.384L41 6.573h-9.733l3.107-14.697c.573-2.642 1.242-5.75-2.645-5.75-1.29 0-2.841.469-4.083 2.178-.467.62-.828 1.451-1.292 3.675L23.243 6.573h-9.729L16.67-8.229c.463-2.333 1.191-5.645-2.692-5.645-3.312 0-4.71 2.745-5.332 5.645L5.488 6.573h-9.733L0-13.512Z" style="fill:#0055a5;fill-rule:nonzero" transform="translate(376.867 130.829) scale(4.16667)"/><path d="M0-1.945c4.09 0 5.847-4.452 6.677-8.331.517-2.482 1.086-7.453-3.056-7.453-4.973 0-6.364 6.469-6.678 7.966C-3.522-7.686-4.454-1.945 0-1.945m-.519-20.704-.675 3.673C0-20.265 2.795-23.324 8.228-23.324c4.352 0 10.666 2.483 8.389 13.153C14.491-.078 7.973 3.854 2.068 3.854c-4.601 0-6.213-2.325-7.037-3.621L-8.89 21.379h-8.558l6.68-39.784c.515-2.846.515-3.158.724-4.244h9.525Z" style="fill:#0055a5;fill-rule:nonzero" transform="translate(627.709 144.324) scale(4.16667)"/><path d="M0 9.524c-.414 1.914.465 3.519 2.792 3.519 1.038 0 2.949-.413 4.352-2.484 1.138-1.655 1.605-3.777 1.761-4.864-4.141.05-8.129.1-8.905 3.829m6.625 8.436c0-.924.158-2.066.465-3.725-1.551 1.763-4.092 4.244-9.42 4.244-6.366 0-8.441-3.467-7.45-8.077C-8.285 3.31-1.138.724 9.938 1.189c.624-2.794.827-5.383-2.123-5.383-1.815 0-3.725.987-4.294 3.937h-9.323c.316-1.192.779-3.419 3.161-5.436C-.157-7.764 4.141-8.955 8.851-8.955c2.331 0 7.199.312 9.372 3.005 1.341 1.599 1.448 4.036.823 6.83l-2.585 12.113c-.358 1.865-.411 2.384-.515 4.967H6.625Z" style="fill:#0055a5;fill-rule:nonzero" transform="translate(741.001 83.385) scale(4.16667)"/><path d="m0-18.532-1.296 6.211h-6.26L-9.474-3.31c-.625 3.207-.931 4.659 2.795 4.659.776 0 1.244 0 2.43-.159l-1.293 6.108c-1.347.212-3.105.466-6.417.466-7.766 0-8.75-2.59-7.66-7.61l2.64-12.475h-4.923l1.299-6.211h5.07l.884-4.036 10.145-3.728-1.654 7.764H0Z" style="fill:#0055a5;fill-rule:nonzero" transform="translate(923.817 127.596) scale(4.16667)"/><path d="M0-37.375h9.836L6.833-23.141c1.246-1.035 4.144-3.411 8.853-3.411 2.538 0 4.968.67 6.679 2.641 2.121 2.327 1.501 5.176.725 8.794L19.883 0h-9.678l2.947-13.975c.461-2.174 1.395-6.418-2.646-6.418-3.102 0-4.395 2.591-4.858 3.622-.526 1.19-.885 2.85-1.344 5.021L1.81 0h-9.728L0-37.375Z" style="fill:#0055a5;fill-rule:nonzero" transform="translate(950.772 158.221) scale(4.16667)"/><g><text x="703.284" y="224.578" style="font-family:'Rubik-Regular','Rubik';font-size:72px;fill:#71cbd2" transform="translate(82.945 -.299)">F<tspan x="744.972" y="224.578">O</tspan>RMS</text></g></svg>