<svg width="100%" height="100%" viewBox="0 0 206 233" version="1.1" xmlns="http://www.w3.org/2000/svg" xmlns:xlink="http://www.w3.org/1999/xlink" xml:space="preserve" xmlns:serif="http://www.serif.com/" style="fill-rule:evenodd;clip-rule:evenodd;stroke-linejoin:round;stroke-miterlimit:2;">
    <g transform="matrix(1,0,0,1,-22.4836,-8.57025)">
        <g id="Layer-1" serif:id="Layer 1" transform="matrix(0.96533,0,0,1,-3.64111,-6.07925)">
            <g>
                <path d="M217.596,180.455C210.93,176.269 208.89,167.466 213.067,160.775C217.267,154.094 226.058,152.066 232.739,156.227C239.435,160.427 241.46,169.216 237.299,175.912C233.109,182.584 224.278,184.637 217.596,180.455" style="fill:rgb(84,185,71);fill-rule:nonzero;"/>
            </g>
            <g>
                <path d="M230.678,75.121C230.678,75.121 224.92,178.617 126.449,247.509C131.462,243.375 197.728,174.204 185.224,162.25C177.295,151.971 151.466,137.321 128.053,130.008C128.053,130.008 167.928,126.621 196.349,138.25C200.924,133.913 224.799,100.992 230.678,75.121" style="fill:rgb(84,185,71);fill-rule:nonzero;"/>
            </g>
            <g>
                <path d="M38.514,187.159C45.325,183.174 54.066,185.487 58.043,192.284C62.016,199.098 59.713,207.842 52.917,211.805C46.103,215.792 37.366,213.495 33.388,206.689C29.4,199.889 31.719,191.14 38.514,187.159" style="fill:rgb(113,203,210);fill-rule:nonzero;"/>
            </g>
            <g>
                <path d="M126.451,247.509C126.451,247.509 29.163,195.842 27.063,71.708C28.392,78.054 53.28,172.483 69.684,166.946C82.492,164.704 107.438,148.642 124.813,131.313C124.813,131.313 109.263,168.188 85.763,187.954C87.476,194.021 106.242,230.279 126.451,247.509" style="fill:rgb(113,203,210);fill-rule:nonzero;"/>
            </g>
            <g>
                <path d="M129.035,30.128C128.375,37.988 121.451,43.813 113.594,43.128C105.758,42.482 99.92,35.558 100.596,27.707C101.258,19.835 108.163,14.033 116.017,14.702C123.87,15.353 129.7,22.273 129.035,30.128" style="fill:rgb(0,85,165);fill-rule:nonzero;"/>
            </g>
            <g>
                <path d="M27.063,71.707C27.063,71.707 124.426,18.915 230.68,75.12C224.7,72.524 132.542,46.636 127.605,63.245C122.084,74.99 120.821,104.661 125.001,128.815C125.001,128.815 103.805,94.89 101.184,64.282C95.242,62.195 52.767,65.132 27.063,71.707" style="fill:rgb(0,85,165);fill-rule:nonzero;"/>
            </g>
        </g>
    </g>
</svg>
