<svg id="SvgjsSvg1001" width="288" height="288" xmlns="http://www.w3.org/2000/svg" version="1.1" xmlns:xlink="http://www.w3.org/1999/xlink" xmlns:svgjs="http://svgjs.com/svgjs"><defs id="SvgjsDefs1002"></defs><g id="SvgjsG1008"><svg xmlns="http://www.w3.org/2000/svg" fill-rule="evenodd" stroke-linejoin="round" stroke-miterlimit="2" clip-rule="evenodd" viewBox="0 0 206 233" width="288" height="288"><g transform="matrix(.96533 0 0 1 -26.125 -14.65)" fill="#ffffff" class="color000 svgShape"><path fill="#ffffff" fill-rule="nonzero" d="M217.596 180.455C210.93 176.269 208.89 167.466 213.067 160.775 217.267 154.094 226.058 152.066 232.739 156.227 239.435 160.427 241.46 169.216 237.299 175.912 233.109 182.584 224.278 184.637 217.596 180.455M230.678 75.121C230.678 75.121 224.92 178.617 126.449 247.509 131.462 243.375 197.728 174.204 185.224 162.25 177.295 151.971 151.466 137.321 128.053 130.008 128.053 130.008 167.928 126.621 196.349 138.25 200.924 133.913 224.799 100.992 230.678 75.121" class="color54b947 svgShape"></path><path fill="#ffffff" fill-rule="nonzero" d="M38.514 187.159C45.325 183.174 54.066 185.487 58.043 192.284 62.016 199.098 59.713 207.842 52.917 211.805 46.103 215.792 37.366 213.495 33.388 206.689 29.4 199.889 31.719 191.14 38.514 187.159M126.451 247.509C126.451 247.509 29.163 195.842 27.063 71.708 28.392 78.054 53.28 172.483 69.684 166.946 82.492 164.704 107.438 148.642 124.813 131.313 124.813 131.313 109.263 168.188 85.763 187.954 87.476 194.021 106.242 230.279 126.451 247.509" class="color71cbd2 svgShape"></path><path fill="#ffffff" fill-rule="nonzero" d="M129.035 30.128C128.375 37.988 121.451 43.813 113.594 43.128 105.758 42.482 99.92 35.558 100.596 27.707 101.258 19.835 108.163 14.033 116.017 14.702 123.87 15.353 129.7 22.273 129.035 30.128M27.063 71.707C27.063 71.707 124.426 18.915 230.68 75.12 224.7 72.524 132.542 46.636 127.605 63.245 122.084 74.99 120.821 104.661 125.001 128.815 125.001 128.815 103.805 94.89 101.184 64.282 95.242 62.195 52.767 65.132 27.063 71.707" class="color0055a5 svgShape"></path></g></svg></g></svg>
